<svg viewBox="0 0 800 600" xmlns="http://www.w3.org/2000/svg">
<defs>
<linearGradient id="hg-hero-main" x1="0" y1="0" x2="1" y2="1">
<stop offset="0" stop-color="#E8F5E9"/>
<stop offset="1" stop-color="#FFFFFF"/>
</linearGradient>
</defs>
<rect width="800" height="600" fill="url(#hg-hero-main)"/>

<circle cx="600" cy="180" r="160" fill="#F9A825" opacity="0.18"/>
<circle cx="150" cy="480" r="120" fill="#2E7D32" opacity="0.12"/>
<g transform="translate(230,150) scale(1.5)">
<circle cx="180" cy="230" r="95" fill="#E53935"/>
<circle cx="140" cy="200" r="48" fill="#EF5350"/>
<path d="M178 140 Q188 100 213 95" stroke="#1B5E20" stroke-width="9" fill="none" stroke-linecap="round"/>
</g>
<g transform="translate(420,300) scale(1.1)">
<path d="M170 120 L230 120 L210 320 Q200 340 190 320 Z" fill="#FB8C00"/>
<path d="M180 120 Q170 80 150 70" stroke="#2E7D32" stroke-width="7" fill="none" stroke-linecap="round"/>
<path d="M210 118 Q220 75 245 65" stroke="#2E7D32" stroke-width="7" fill="none" stroke-linecap="round"/>
</g>
<g transform="translate(80,80) scale(0.9)">
<circle cx="160" cy="220" r="50" fill="#2E7D32"/>
<circle cx="195" cy="180" r="52" fill="#4CAF50"/>
</g>

</svg>