<svg viewBox="0 0 800 600" xmlns="http://www.w3.org/2000/svg">
<defs>
<linearGradient id="hg-hero-secondary" x1="0" y1="0" x2="1" y2="1">
<stop offset="0" stop-color="#FFF3D6"/>
<stop offset="1" stop-color="#FFFFFF"/>
</linearGradient>
</defs>
<rect width="800" height="600" fill="url(#hg-hero-secondary)"/>

<circle cx="650" cy="450" r="180" fill="#2E7D32" opacity="0.1"/>
<g transform="translate(180,120) scale(1.3)">
<path d="M110 240 Q110 160 200 150 Q290 160 290 240 L285 280 Q285 300 260 300 L140 300 Q115 300 115 280 Z" fill="#D7A86E"/>
<path d="M130 230 Q200 190 270 230" stroke="#A9743F" stroke-width="6" fill="none" stroke-linecap="round"/>
</g>
<g transform="translate(480,250) scale(1.1)">
<rect x="165" y="120" width="70" height="40" rx="8" fill="#2E7D32"/>
<path d="M160 160 Q160 180 175 190 L175 320 Q175 340 195 340 L205 340 Q225 340 225 320 L225 190 Q240 180 240 160 Z" fill="#FFB74D"/>
</g>

</svg>